<svg width="24" height="24" viewBox="0 0 24 24" fill="none" xmlns="http://www.w3.org/2000/svg">
<path fill-rule="evenodd" clip-rule="evenodd" d="M17.5 9.49999H13.6C13.4927 9.49273 13.4073 9.4073 13.4 9.29999V5.49999C13.4297 5.11124 13.2952 4.72783 13.0291 4.44281C12.7631 4.15778 12.3899 3.99719 12 3.99999C11.6 3.99259 11.2141 4.14825 10.9312 4.43117C10.6483 4.7141 10.4926 5.09994 10.5 5.49999V9.39999C10.4927 9.5073 10.4073 9.59273 10.3 9.59999H6.5C6.10728 9.55292 5.71379 9.6815 5.42463 9.95138C5.13547 10.2213 4.9801 10.605 5 11C5.02002 11.82 5.68001 12.48 6.5 12.5H10.4C10.5073 12.5073 10.5927 12.5927 10.6 12.7V16.6C10.5903 16.9742 10.7347 17.336 10.9993 17.6007C11.264 17.8653 11.6258 18.0097 12 18C12.82 17.98 13.48 17.32 13.5 16.5V12.6C13.5073 12.4927 13.5927 12.4073 13.7 12.4H17.6C18.3665 12.3841 18.9841 11.7665 19 11C19.033 10.5929 18.8856 10.1919 18.5969 9.90314C18.3081 9.61437 17.9071 9.46697 17.5 9.49999Z" fill="#42526E"/>
</svg>
