<svg width="24" height="24" viewBox="0 0 24 24" fill="none" xmlns="http://www.w3.org/2000/svg">
<path fill-rule="evenodd" clip-rule="evenodd" d="M8.97301 16.774L5.50001 13.3C5.17825 12.9785 4.99747 12.5423 4.99747 12.0875C4.99747 11.6327 5.17825 11.1965 5.50001 10.875C6.16994 10.2061 7.25507 10.2061 7.92501 10.875L10.1 13.048C10.1913 13.1388 10.3387 13.1388 10.43 13.048L16.07 7.40801C16.7399 6.73906 17.8251 6.73906 18.495 7.40801C18.8168 7.72949 18.9975 8.16567 18.9975 8.62051C18.9975 9.07534 18.8168 9.51153 18.495 9.83301L11.555 16.774C10.8419 17.4869 9.68606 17.4869 8.97301 16.774Z" fill="#42526E"/>
</svg>
