<svg width="24" height="24" viewBox="0 0 24 24" fill="none" xmlns="http://www.w3.org/2000/svg">
<path fill-rule="evenodd" clip-rule="evenodd" d="M7.91999 5.58701C6.87642 5.57045 5.96249 6.28369 5.72499 7.30001L5.03499 12.206C4.90231 12.7658 5.14435 13.3475 5.63499 13.648C5.80556 13.7571 6.00454 13.8135 6.20699 13.81H10.15L8.99299 16.028C8.88116 16.2498 8.82293 16.4947 8.82299 16.743C8.86201 17.1582 9.02587 17.5518 9.29299 17.872C9.94773 18.8595 10.4751 18.2886 10.9041 17.8242C10.9134 17.8141 10.9227 17.804 10.932 17.794L13.838 14.057C14.1779 13.6904 14.3669 13.209 14.367 12.709V10.284C14.367 8.37101 13.947 6.09101 11.447 5.73901L7.91999 5.58701ZM16.1 6.58001H17.5C18.3276 6.58385 18.9973 7.2544 19 8.08201L18.677 11.454C18.6732 12.2808 18.0038 12.9502 17.177 12.954H15.777C15.5988 12.9535 15.4545 12.8092 15.454 12.631L15.777 6.90301C15.7781 6.72508 15.9221 6.58111 16.1 6.58001Z" fill="#42526E"/>
</svg>
