<svg width="14" height="14" viewBox="0 0 14 14" fill="none" xmlns="http://www.w3.org/2000/svg">
<path fill-rule="evenodd" clip-rule="evenodd" d="M5.15386 4.363V5H5.18186L1.88086 8.3V6.634C1.89457 5.95488 2.32999 5.35623 2.97186 5.134V4.363C2.97462 1.95452 4.92638 0.00275538 7.33486 0C8.11817 0.00375559 8.88566 0.220864 9.55486 0.628L7.91286 2.269C7.72503 2.21395 7.53058 2.18468 7.33486 2.182C6.13101 2.18365 5.15551 3.15915 5.15386 4.363ZM12.4169 0.261C12.7677 -0.0866279 13.3331 -0.0866279 13.6839 0.261C14.0315 0.611799 14.0315 1.1772 13.6839 1.528L11.6219 3.59C11.6711 3.84475 11.6965 4.10353 11.6979 4.363V5.137C12.3401 5.35874 12.7757 5.95769 12.7889 6.637V12.364C12.7683 12.8233 12.5642 13.2551 12.2224 13.5627C11.8807 13.8703 11.4298 14.0278 10.9709 14H3.69886C3.04374 14.0176 2.42952 13.6825 2.08986 13.122L1.47286 13.739C1.11512 14.0342 0.591589 14.0092 0.263609 13.6813C-0.0643716 13.3533 -0.089373 12.8297 0.20586 12.472L12.4169 0.261Z" fill="#42526E"/>
</svg>
