<svg width="14" height="13" viewBox="0 0 14 13" fill="none" xmlns="http://www.w3.org/2000/svg">
<path fill-rule="evenodd" clip-rule="evenodd" d="M12.99 0H1.01C0.457185 0.00266298 0.00816337 0.447239 0 1V1.41C0.00110198 1.96719 0.452811 2.41845 1.01 2.419H12.99C13.5472 2.41845 13.9989 1.96719 14 1.41V1.002C13.9929 0.448456 13.5436 0.00268172 12.99 0ZM12.99 4.93H1.01C0.457185 4.93266 0.00816337 5.37724 0 5.93V6.337C0.00055124 6.89458 0.452421 7.34645 1.01 7.347H12.99C13.5452 7.34646 13.9962 6.89823 14 6.343V5.935C13.9951 5.38006 13.545 4.93217 12.99 4.93ZM1.01 9.867H12.987C13.542 9.86751 13.9934 10.3141 14 10.869V11.276C13.9978 11.8336 13.5446 12.2841 12.987 12.283H1.01C0.452421 12.2824 0.00055124 11.8306 0 11.273V10.867C0.00816337 10.3142 0.457185 9.86966 1.01 9.867Z" fill="#42526E"/>
</svg>
