<svg width="24" height="24" viewBox="0 0 24 24" fill="none" xmlns="http://www.w3.org/2000/svg">
<path fill-rule="evenodd" clip-rule="evenodd" d="M5.48199 13.437L10.563 18.518C11.2062 19.1611 12.2488 19.1611 12.892 18.518L18.277 13.134C18.7401 12.6705 19.0001 12.0422 19 11.387V6.236C19.0005 5.9082 18.8706 5.59366 18.6389 5.36178C18.4072 5.1299 18.0928 4.99973 17.765 5H12.613C11.958 5.00018 11.3299 5.26063 10.867 5.724L5.48199 11.109C5.17324 11.4177 4.99979 11.8364 4.99979 12.273C4.99979 12.7096 5.17324 13.1283 5.48199 13.437ZM16.055 8.913C15.4481 8.91024 14.9582 8.41654 14.96 7.80968C14.9618 7.20282 15.4548 6.7121 16.0616 6.71301C16.6685 6.71393 17.16 7.20614 17.16 7.813C17.16 8.10561 17.0434 8.38616 16.836 8.59259C16.6287 8.79903 16.3476 8.91433 16.055 8.913ZM9.56899 11.35L12.514 14.3C12.8015 14.5875 12.8015 15.0535 12.514 15.341C12.2265 15.6285 11.7605 15.6285 11.473 15.341L8.52799 12.391C8.34203 12.205 8.26941 11.934 8.33747 11.68C8.40554 11.426 8.60395 11.2275 8.85797 11.1595C9.112 11.0914 9.38303 11.164 9.56899 11.35Z" fill="#42526E"/>
</svg>
