<svg width="24" height="24" viewBox="0 0 24 24" fill="none" xmlns="http://www.w3.org/2000/svg">
<path fill-rule="evenodd" clip-rule="evenodd" d="M13.671 18.492C12.9909 19.1713 11.8891 19.1713 11.209 18.492L5.9 13.178C5.36894 12.6035 5.05828 11.8596 5.023 11.078L5 6.744C4.99893 6.28131 5.1822 5.83725 5.50927 5.50999C5.83635 5.18272 6.28031 4.9992 6.743 5L11.079 5.021C11.8609 5.05666 12.6048 5.36807 13.179 5.9L18.49 11.207C19.1683 11.8879 19.1683 12.9891 18.49 13.67L13.672 18.492H13.671ZM9.371 11.125C10.3375 11.125 11.121 10.3415 11.121 9.375C11.121 8.4085 10.3375 7.625 9.371 7.625C8.4045 7.625 7.621 8.4085 7.621 9.375C7.62073 9.83921 7.80502 10.2845 8.13327 10.6127C8.46151 10.941 8.90679 11.1253 9.371 11.125Z" fill="#42526E"/>
</svg>
