<svg width="24" height="24" viewBox="0 0 24 24" fill="none" xmlns="http://www.w3.org/2000/svg">
<path fill-rule="evenodd" clip-rule="evenodd" d="M18.613 6.67101C18.0474 6.99784 17.4308 7.22705 16.789 7.34901C16.2384 6.78128 15.4798 6.46305 14.689 6.46801C13.1264 6.44799 11.8429 7.69746 11.821 9.26001C11.8219 9.47572 11.8485 9.69055 11.9 9.90001C9.60384 9.79611 7.45567 8.73707 5.975 6.97901C5.72096 7.40185 5.58651 7.88573 5.586 8.37901C5.58781 9.322 6.06939 10.1992 6.864 10.707C6.40937 10.6937 5.96416 10.5742 5.564 10.358C5.564 10.369 5.564 10.381 5.564 10.393C5.57763 11.7383 6.54131 12.8859 7.864 13.132C7.61708 13.1981 7.36261 13.2317 7.107 13.232C6.92578 13.2324 6.74495 13.2153 6.567 13.181C6.95984 14.3309 8.03491 15.1083 9.25 15.121C8.22524 15.9023 6.97159 16.324 5.683 16.321C5.45466 16.3191 5.22661 16.3041 5 16.276C6.31988 17.099 7.84458 17.5342 9.4 17.532C11.5424 17.5781 13.6137 16.7628 15.1499 15.2688C16.686 13.7747 17.5586 11.7269 17.572 9.58401C17.572 9.46301 17.572 9.34301 17.564 9.22301C18.1251 8.83014 18.6114 8.34009 19 7.77601C18.4747 8.00338 17.9187 8.15198 17.35 8.21701C17.946 7.87356 18.3953 7.32351 18.613 6.67101Z" fill="#42526E"/>
</svg>
